# xmcd
#
# Track frame offsets:
#	150
#	1272
#	24155
#	45457
#	59435
#	60705
#	83237
#	84592
#	108482
#	132262
#	151270
#	152317
#	170615
#	185872
#	195217
#	197657
#	211297
#	212857
#	230827
#
# Disc length: 3112 seconds
#
# Revision: 12
# Processed by: cddbd v1.5.2PL0 Copyright (c) Steve Scherf et al.
# Submitted via: audiograbber 1.83.01
#
DISCID=f90c2613
DTITLE=Compilation/Soundtrack - Ghost Dog - The way of the Samurai
DYEAR=2000
DGENRE=Hip Hop/Rap
TTITLE0=Forest Whitaker - Samurai Code Quote
TTITLE1=Sunz of Man, 12 o'clock and Blue Raspberry - Strange eyes
TTITLE2=North Star feat. Rza - 4 Sho Sho
TTITLE3=Black Knights - Zip Code
TTITLE4=Forest Whitaker - Samurai Code Quote
TTITLE5=Kool G Rap feat. Rza - Cakes
TTITLE6=Forest Whitaker - Samurai Code Quote
TTITLE7=Suga Bang Bang - Don't Test/Wu Stallion
TTITLE8=Tekitha - Walking through the darkness
TTITLE9=Masta Killa and Superb - The Man
TTITLE10=Forest Whitaker - Samurai Code Quote
TTITLE11=Royal Fam and La the Darkman - Walk the Dogs
TTITLE12=Melodie and 12 o'clock - Stay with me
TTITLE13=Jeru and Afu Ra - East New York Stamp
TTITLE14=Forest Whitaker - Samurai Code Quote
TTITLE15=Wu Tang Clan - Fast Shadow
TTITLE16=Forest Whitaker - Samurai Code Quote
TTITLE17=Rza - Samurai Showdown
TTITLE18=Forest Whitaker - Samurai Code Final Quote
EXTD=
EXTT0=
EXTT1=
EXTT2=
EXTT3=
EXTT4=
EXTT5=
EXTT6=
EXTT7=
EXTT8=
EXTT9=
EXTT10=
EXTT11=
EXTT12=
EXTT13=
EXTT14=
EXTT15=
EXTT16=
EXTT17=
EXTT18=
PLAYORDER=
